<svg data-v-423bf9ae="" xmlns="http://www.w3.org/2000/svg" viewBox="0 0 194.80636935682958 163" class="iconAbove"><!----><!----><!----><g data-v-423bf9ae="" id="27f5c31e-dfa1-42dd-9ea0-46988bb9cf2b" fill="#FFFFFF" transform="matrix(4.5558086296446,0,0,4.5558086296446,-3.82688312254227,91.9749456297024)"><path d="M2.89 12.67L0.84 12.67L0.84 2.42L5.31 2.42Q8.90 2.42 8.90 5.37L8.90 5.37Q8.90 8.44 5.32 8.44L5.32 8.44L2.89 8.44L2.89 12.67ZM2.89 4.34L2.89 6.52L5.76 6.52Q7 6.50 7.03 5.39L7.03 5.39Q7 4.38 5.78 4.34L5.78 4.34L2.89 4.34ZM11.14 7.82L10.38 6.66Q11.68 5.84 13.39 5.84L13.39 5.84Q14.62 5.84 15.34 6.52Q16.06 7.21 16.06 8.57L16.06 8.57L16.06 12.67L14.14 12.67L14.14 12.13Q13.31 12.67 12.64 12.67L12.64 12.67Q11.27 12.67 10.59 12.09Q9.91 11.51 9.91 10.49L9.91 10.49Q9.91 9.53 10.55 8.78Q11.20 8.03 12.64 8.03L12.64 8.03Q13.30 8.03 14.14 8.44L14.14 8.44L14.14 8.23Q14.13 7.48 13.05 7.41L13.05 7.41Q11.82 7.41 11.14 7.82L11.14 7.82ZM14.14 10.62L14.14 10.62L14.14 9.85Q13.87 9.32 12.84 9.32L12.84 9.32Q11.61 9.46 11.55 10.28L11.55 10.28Q11.61 11.09 12.84 11.16L12.84 11.16Q13.87 11.16 14.14 10.62ZM19.53 5.83L19.53 6.59Q20.26 5.84 21.31 5.84L21.31 5.84Q21.65 5.84 21.95 5.89L21.95 5.89L21.65 7.78Q21.31 7.48 20.69 7.46L20.69 7.46Q20.00 7.51 19.53 8.47L19.53 8.47L19.53 12.67L17.62 12.67L17.62 6.04L19.53 5.83ZM27.43 12.35Q26.93 12.67 26.30 12.67L26.30 12.67Q25.14 12.67 24.45 12.02Q23.77 11.38 23.77 10.35L23.77 10.35L23.77 7.39L22.74 7.39L22.74 5.84L23.77 5.84L23.77 3.99L25.69 3.79L25.69 5.84L26.71 5.84L26.71 7.39L25.69 7.39L25.69 10.08Q25.69 10.62 25.92 10.85Q26.15 11.07 26.51 11.07L26.51 11.07Q26.62 11.07 27.02 10.98L27.02 10.98L27.43 12.35ZM30.50 12.67L28.59 12.67L28.59 5.83L30.50 5.83L30.50 12.67ZM28.52 4.20L28.52 4.20Q28.52 4.61 28.79 4.88Q29.07 5.15 29.54 5.15L29.54 5.15Q30.02 5.15 30.30 4.88Q30.57 4.61 30.57 4.20L30.57 4.20Q30.57 3.79 30.30 3.51Q30.02 3.23 29.53 3.23L29.53 3.23Q29.07 3.23 28.79 3.51Q28.52 3.79 28.52 4.20ZM34.41 12.67L32.49 12.67L32.49 7.21L31.47 7.21L31.47 5.66L32.49 5.66L32.49 4.74Q32.49 3.72 33.17 3.07Q33.86 2.42 35.02 2.42L35.02 2.42Q36.25 2.42 36.93 3.10L36.93 3.10L35.92 4.24Q35.72 4.03 35.23 4.03L35.23 4.03Q34.87 4.03 34.64 4.25Q34.41 4.47 34.41 5.02L34.41 5.02L34.41 5.66L35.44 5.66L35.44 7.21L34.41 7.21L34.41 12.67ZM41.69 10.31L41.69 10.31L41.69 5.84L43.60 5.84L43.60 12.13Q43.60 13.56 42.71 14.53Q41.82 15.49 40.59 15.54L40.59 15.54L40.18 15.59Q38.75 15.54 37.58 14.45L37.58 14.45L38.47 13.43Q39.29 14.04 40.02 14.11L40.02 14.11Q40.91 14.11 41.30 13.67Q41.69 13.22 41.69 12.40L41.69 12.40L41.69 12.05Q40.96 12.67 40.01 12.67L40.01 12.67Q38.71 12.67 38.03 11.89Q37.34 11.10 37.34 10.08L37.34 10.08L37.34 5.84L39.26 5.84L39.26 9.60Q39.26 10.28 39.60 10.66Q39.94 11.03 40.63 11.05L40.63 11.05Q41.23 11.01 41.69 10.31Z"></path></g><defs data-v-423bf9ae=""><linearGradient data-v-423bf9ae="" gradientTransform="rotate(25)" id="fbf1e25a-9dc1-4aa5-965a-e92725823355" x1="0%" y1="0%" x2="100%" y2="0%"><stop data-v-423bf9ae="" offset="0%" style="stop-color: rgb(233, 13, 218); stop-opacity: 1;"></stop><stop data-v-423bf9ae="" offset="100%" style="stop-color: rgb(21, 207, 241); stop-opacity: 1;"></stop></linearGradient></defs><g data-v-423bf9ae="" id="2441a3ab-bde0-4a3c-a11c-54cdea22e636" transform="matrix(2.8125,0,0,2.8125,53,0)" stroke="none" fill="url(#fbf1e25a-9dc1-4aa5-965a-e92725823355)"><path d="M0 32h32V0H0v32zm19.377-19.492l6.936-6.936v20.855h-6.936V12.508zM5.688 5.572l6.936 6.936v13.919H5.688V5.572z"></path></g><!----></svg>